<svg width="1024" height="1024" viewBox="0 0 1024 1024" fill="none" xmlns="http://www.w3.org/2000/svg">
<path d="M717.2 368H378.8C362.894 368 350 380.894 350 396.8C350 412.706 362.894 425.6 378.8 425.6H717.2C733.106 425.6 746 412.706 746 396.8C746 380.894 733.106 368 717.2 368Z" fill="#4285F4" style="fill:#4285F4;fill:color(display-p3 0.2588 0.5216 0.9569);fill-opacity:1;"/>
<path d="M645.2 458H378.8C362.894 458 350 470.894 350 486.8C350 502.706 362.894 515.6 378.8 515.6H645.2C661.106 515.6 674 502.706 674 486.8C674 470.894 661.106 458 645.2 458Z" fill="#6B7280" style="fill:#6B7280;fill:color(display-p3 0.4196 0.4471 0.5020);fill-opacity:1;"/>
<path d="M681.2 548H378.8C362.894 548 350 560.894 350 576.8C350 592.706 362.894 605.6 378.8 605.6H681.2C697.106 605.6 710 592.706 710 576.8C710 560.894 697.106 548 681.2 548Z" fill="#6B7280" style="fill:#6B7280;fill:color(display-p3 0.4196 0.4471 0.5020);fill-opacity:1;"/>
<path d="M573.2 638H378.8C362.894 638 350 650.894 350 666.8C350 682.706 362.894 695.6 378.8 695.6H573.2C589.106 695.6 602 682.706 602 666.8C602 650.894 589.106 638 573.2 638Z" fill="#6B7280" style="fill:#6B7280;fill:color(display-p3 0.4196 0.4471 0.5020);fill-opacity:1;"/>
<path d="M314 418.4C325.929 418.4 335.6 408.729 335.6 396.8C335.6 384.871 325.929 375.2 314 375.2C302.071 375.2 292.4 384.871 292.4 396.8C292.4 408.729 302.071 418.4 314 418.4Z" fill="#4285F4" style="fill:#4285F4;fill:color(display-p3 0.2588 0.5216 0.9569);fill-opacity:1;"/>
<path d="M314 508.4C325.929 508.4 335.6 498.729 335.6 486.8C335.6 474.871 325.929 465.2 314 465.2C302.071 465.2 292.4 474.871 292.4 486.8C292.4 498.729 302.071 508.4 314 508.4Z" fill="#6B7280" style="fill:#6B7280;fill:color(display-p3 0.4196 0.4471 0.5020);fill-opacity:1;"/>
<path d="M314 598.4C325.929 598.4 335.6 588.729 335.6 576.8C335.6 564.871 325.929 555.2 314 555.2C302.071 555.2 292.4 564.871 292.4 576.8C292.4 588.729 302.071 598.4 314 598.4Z" fill="#6B7280" style="fill:#6B7280;fill:color(display-p3 0.4196 0.4471 0.5020);fill-opacity:1;"/>
<path d="M314 688.4C325.929 688.4 335.6 678.729 335.6 666.8C335.6 654.871 325.929 645.2 314 645.2C302.071 645.2 292.4 654.871 292.4 666.8C292.4 678.729 302.071 688.4 314 688.4Z" fill="#6B7280" style="fill:#6B7280;fill:color(display-p3 0.4196 0.4471 0.5020);fill-opacity:1;"/>
</svg>
